<svg id="Layer_11" data-name="Layer 11" xmlns="http://www.w3.org/2000/svg" xmlns:xlink="http://www.w3.org/1999/xlink" viewBox="0 0 46.97 53.34"><defs><style>.cls-1{fill:none;}.cls-2{clip-path:url(#clip-path);}.cls-3{fill:#e4e5e6;}</style><clipPath id="clip-path" transform="translate(-196.34 -32.66)"><circle class="cls-1" cx="221.27" cy="57.69" r="24.94"/></clipPath></defs><title>hs</title><g class="cls-2"><path class="cls-3" d="M200.12,86a17.91,17.91,0,0,0,4.38-3.46,19.53,19.53,0,0,0,3.76-6.17,32,32,0,0,0,1.74-6.5c1-5.39,1.65-8.92.71-13.21A10.11,10.11,0,0,0,208,51.27a5.45,5.45,0,0,0-3.17-1.78c-3.09-.33-5.37,3.07-5.64,3.49a9.86,9.86,0,0,0-1.34,3.86A16.79,16.79,0,0,0,198.1,64a15.64,15.64,0,0,0,4,7,13,13,0,0,0,5.29,3.47,14.62,14.62,0,0,0,4.54.63,12.12,12.12,0,0,1-4.82-.11c-4.81-1.11-8.47-5.72-9.94-10.1A16,16,0,0,1,198,52.54a12.29,12.29,0,0,1,2.15-2.73A6.82,6.82,0,0,1,203,48a5.93,5.93,0,0,1,3.14,0,7.94,7.94,0,0,1,4.43,3.77,12,12,0,0,1,1.67,5.44c.34,2.58,0,4.65-.57,8.79-.19,1.29-.5,3.15-1,5.39a28,28,0,0,1-1.43,4.93,19.85,19.85,0,0,1-3,4.89A18.38,18.38,0,0,1,200.12,86Z" transform="translate(-196.34 -32.66)"/><path class="cls-3" d="M206.7,74.61a16.75,16.75,0,0,0,7.07.27,17.87,17.87,0,0,0,7.14-3.14,23.63,23.63,0,0,0,5.8-5.82c1.53-2.17,3.1-4.4,3.27-7.56.07-1.31.18-3.35-1.11-4.53-2-1.83-5.87-.33-6.83.05-5.45,2.12-7.89,7.57-8.58,9.1a28,28,0,0,0-1.87,6.79,18.63,18.63,0,0,0-.34,3.85,10.4,10.4,0,0,0,.81,4.63,8.65,8.65,0,0,0,3.59,3.7l.34.18a13.23,13.23,0,0,0,7.36,1.21,10.32,10.32,0,0,0,3.79-1.24,13.47,13.47,0,0,1-4.19,1,11.75,11.75,0,0,1-5.28-.89,9.21,9.21,0,0,1-3.44-2.4l-.09-.1a9.09,9.09,0,0,1-1.69-3.37,11.5,11.5,0,0,1-.43-3.18,23.16,23.16,0,0,1,1.68-8.86,18.6,18.6,0,0,1,5.93-7.51,10.32,10.32,0,0,1,5.12-2.49,4,4,0,0,1,3.16.46A3.84,3.84,0,0,1,229,57.73a9.44,9.44,0,0,1-1.48,5.09,22.54,22.54,0,0,1-6.56,8.06,20.27,20.27,0,0,1-5.88,3,19.51,19.51,0,0,1-4.67.87A17.5,17.5,0,0,1,206.7,74.61Z" transform="translate(-196.34 -32.66)"/><path class="cls-3" d="M213.85,80.17c.09-.14,2.23,1.68,5.2,2.51,6.29,1.75,12.37-2,13.6-2.75a17.5,17.5,0,0,0,7.24-7.61c1.84-4,2.45-9.88-.57-14.3a13.05,13.05,0,0,0-4.23-3.8c-6.8-4-11.76.14-19.36-3.57-1.68-.82-3.88-1.93-5-4.33-1.46-3.23-.11-7.07,1.63-9.35,3.53-4.6,10.84-5.61,15.56-2.6,2.51,1.61,4.91,4.75,4.84,8.2A6.83,6.83,0,0,1,231,47.28a5.86,5.86,0,0,1-2.6,1.54c-4.25,1.14-8.5-3.77-8.38-4s4.86,4.56,8.28,3.08c2.23-1,2.88-4.08,2.92-4.29a7.2,7.2,0,0,0-.65-4.42,9.93,9.93,0,0,0-5.78-5,10.52,10.52,0,0,0-5.83-.34l-.49.13a9.9,9.9,0,0,0-5.58,4.06,7.94,7.94,0,0,0,1.16,10.45,11.85,11.85,0,0,0,6.74,3.08c3.2.61,4.1-.07,10,.39a13.22,13.22,0,0,1,4.16.93,13.77,13.77,0,0,1,2.77,1.54A14.29,14.29,0,0,1,243,62.55a13.87,13.87,0,0,1-.62,7.61c-1.68,4.85-5.33,7.52-7.23,8.9a24.29,24.29,0,0,1-4.33,2.51,20.92,20.92,0,0,1-4.91,1.64,14.51,14.51,0,0,1-7.92-.36A9.71,9.71,0,0,1,213.85,80.17Z" transform="translate(-196.34 -32.66)"/></g></svg>