<svg id="omakuva" xmlns="http://www.w3.org/2000/svg" xmlns:xlink="http://www.w3.org/1999/xlink" viewBox="0 0 685.9 897.84"><defs><style>.cls-1{fill:url(#radial-gradient);}.cls-2{fill:#c6b6ab;}.cls-3{fill:#ad9d95;}.cls-4{fill:#a5968e;}.cls-5{fill:url(#radial-gradient-2);}.cls-6{fill:#c6b8ac;}.cls-7{fill:#c1b2a7;}.cls-8{fill:#b6a69d;}.cls-9{fill:#b2a299;}.cls-10{fill:#988b83;}.cls-11{fill:#bbaaa0;}.cls-12{fill:#e8e8e8;}.cls-13{fill:#c6c6c6;}.cls-14{fill:#d8d8d8;}.cls-15{fill:#cdbdb1;}.cls-16{fill:url(#linear-gradient);}.cls-17{fill:url(#linear-gradient-2);}.cls-18{fill:url(#linear-gradient-3);}.cls-19{fill:url(#linear-gradient-4);}.cls-20{fill:url(#linear-gradient-5);}.cls-21{fill:url(#linear-gradient-6);}.cls-22{fill:url(#linear-gradient-7);}.cls-23{fill:url(#linear-gradient-8);}.cls-24{fill:url(#linear-gradient-9);}.cls-25{fill:#8f805a;}.cls-26{fill:#c2ac79;}.cls-27{fill:#cbad71;}.cls-28{fill:#b69c66;}.cls-29{fill:url(#linear-gradient-10);}.cls-30{fill:#d7b77d;}.cls-31{fill:#efdeaa;}.cls-32{fill:#cbaf83;}.cls-33{fill:#dbc789;}.cls-34{fill:url(#linear-gradient-11);}.cls-35{fill:url(#linear-gradient-12);}.cls-36{fill:#e2d4ab;}.cls-37{fill:#f3e6cc;}.cls-38{fill:#ebdbba;}.cls-39{fill:url(#linear-gradient-13);}.cls-40{fill:#bca276;}.cls-41{fill:url(#linear-gradient-14);}.cls-42{fill:url(#radial-gradient-3);}.cls-43{fill:url(#radial-gradient-4);}.cls-44,.cls-45{stroke:#302f18;stroke-miterlimit:10;}.cls-44{fill:url(#radial-gradient-5);}.cls-45{fill:url(#radial-gradient-6);}.cls-46{fill:url(#linear-gradient-15);}.cls-47{fill:url(#linear-gradient-16);}.cls-48{fill:#362e29;}.cls-49{fill:url(#radial-gradient-7);}.cls-50{fill:url(#radial-gradient-8);}.cls-51{fill:url(#radial-gradient-9);}.cls-52{fill:url(#radial-gradient-10);}.cls-53{fill:url(#radial-gradient-11);}.cls-54{fill:url(#radial-gradient-12);}.cls-55{fill:url(#linear-gradient-17);}.cls-56{fill:url(#linear-gradient-18);}.cls-57{fill:url(#radial-gradient-13);}.cls-58{fill:url(#radial-gradient-14);}.cls-59{fill:url(#radial-gradient-15);}.cls-60{fill:url(#radial-gradient-16);}.cls-61{fill:url(#linear-gradient-19);}</style><radialGradient id="radial-gradient" cx="339.55" cy="443.94" r="388.14" gradientUnits="userSpaceOnUse"><stop offset="1" stop-color="#66a397"/><stop offset="1" stop-color="#b3b099"/><stop offset="1" stop-color="#e5b99a"/><stop offset="1" stop-color="#f8bc9b"/></radialGradient><radialGradient id="radial-gradient-2" cx="304.18" cy="538.56" r="160.49" gradientTransform="translate(1095.08 454.06) rotate(106.39) scale(1 1.36)" gradientUnits="userSpaceOnUse"><stop offset="0.25" stop-color="#d6d6d6"/><stop offset="0.25" stop-color="#c3c3c3"/><stop offset="0.25" stop-color="#a8a8a8"/><stop offset="0.26" stop-color="#969696"/><stop offset="0.26" stop-color="#8b8b8b"/><stop offset="0.27" stop-color="#878787"/></radialGradient><linearGradient id="linear-gradient" x1="162.6" y1="265.37" x2="297.34" y2="265.37" gradientUnits="userSpaceOnUse"><stop offset="0.3" stop-color="#afa298"/><stop offset="0.39" stop-color="#b4a69c"/><stop offset="0.71" stop-color="#c1b2a7"/><stop offset="1" stop-color="#c6b6ab"/></linearGradient><linearGradient id="linear-gradient-2" x1="259.25" y1="405.4" x2="362.66" y2="405.4" gradientUnits="userSpaceOnUse"><stop offset="0" stop-color="#baa79d"/><stop offset="1" stop-color="#baa79d"/></linearGradient><linearGradient id="linear-gradient-3" x1="293.58" y1="271.94" x2="441.12" y2="271.94" gradientUnits="userSpaceOnUse"><stop offset="0" stop-color="#cdbdb1"/><stop offset="0.09" stop-color="#c9b9ae"/><stop offset="0.63" stop-color="#b6a89e"/><stop offset="1" stop-color="#afa298"/></linearGradient><linearGradient id="linear-gradient-4" x1="353.5" y1="393.64" x2="434.09" y2="393.64" gradientUnits="userSpaceOnUse"><stop offset="0" stop-color="#cdbdb1"/><stop offset="0.32" stop-color="#c2b3a8"/><stop offset="1" stop-color="#afa298"/></linearGradient><linearGradient id="linear-gradient-5" x1="273.71" y1="441.94" x2="335.65" y2="441.94" gradientUnits="userSpaceOnUse"><stop offset="0" stop-color="#c9b3a8"/><stop offset="0.05" stop-color="#c3afa5"/><stop offset="0.2" stop-color="#b8a89d"/><stop offset="0.41" stop-color="#b1a399"/><stop offset="1" stop-color="#afa298"/></linearGradient><linearGradient id="linear-gradient-6" x1="261.39" y1="417.16" x2="270.5" y2="417.16" gradientUnits="userSpaceOnUse"><stop offset="0" stop-color="#c4aca1"/><stop offset="1" stop-color="#afa298"/></linearGradient><linearGradient id="linear-gradient-7" x1="320.41" y1="335.96" x2="373.97" y2="335.96" gradientUnits="userSpaceOnUse"><stop offset="0" stop-color="#c9b3a8"/><stop offset="0.1" stop-color="#c5b0a5"/><stop offset="0.61" stop-color="#b5a69b"/><stop offset="1" stop-color="#afa298"/></linearGradient><linearGradient id="linear-gradient-8" x1="279.52" y1="335.84" x2="342.31" y2="335.84" gradientUnits="userSpaceOnUse"><stop offset="0" stop-color="#afa298"/><stop offset="0.81" stop-color="#c4b1a5"/><stop offset="1" stop-color="#c9b5a9"/></linearGradient><linearGradient id="linear-gradient-9" x1="302.61" y1="396.48" x2="339.26" y2="396.48" gradientUnits="userSpaceOnUse"><stop offset="0" stop-color="#b2a299"/><stop offset="1" stop-color="#afa298"/></linearGradient><linearGradient id="linear-gradient-10" x1="354.61" y1="60.21" x2="409.58" y2="229.76" gradientUnits="userSpaceOnUse"><stop offset="0" stop-color="#917a66"/><stop offset="0.56" stop-color="#ab926d"/><stop offset="1" stop-color="#bca172"/></linearGradient><linearGradient id="linear-gradient-11" x1="23.13" y1="480.28" x2="408.68" y2="427.63" gradientUnits="userSpaceOnUse"><stop offset="0.69" stop-color="#efdeaa"/><stop offset="0.73" stop-color="#e5d4a3"/><stop offset="0.81" stop-color="#ccbb92"/><stop offset="0.9" stop-color="#a29175"/><stop offset="1" stop-color="#716054"/></linearGradient><linearGradient id="linear-gradient-12" x1="-4.23" y1="346.78" x2="327.4" y2="346.78" gradientUnits="userSpaceOnUse"><stop offset="0.22" stop-color="#f3ecf6"/><stop offset="0.22" stop-color="#f2ebf5"/><stop offset="0.36" stop-color="#e7ded6"/><stop offset="0.5" stop-color="#ded3be"/><stop offset="0.64" stop-color="#d8ccac"/><stop offset="0.8" stop-color="#d4c7a2"/><stop offset="1" stop-color="#d3c69f"/></linearGradient><linearGradient id="linear-gradient-13" x1="30.98" y1="366.35" x2="337.25" y2="366.35" gradientUnits="userSpaceOnUse"><stop offset="0.22" stop-color="#decea4"/><stop offset="0.39" stop-color="#d5c49d"/><stop offset="0.67" stop-color="#beab89"/><stop offset="1" stop-color="#9b846c"/></linearGradient><linearGradient id="linear-gradient-14" x1="229.88" y1="366.2" x2="362.27" y2="321.3" gradientUnits="userSpaceOnUse"><stop offset="0" stop-color="#ebdbba"/><stop offset="0.19" stop-color="#e7d6b6"/><stop offset="0.41" stop-color="#dac8aa"/><stop offset="0.64" stop-color="#c6b296"/><stop offset="0.88" stop-color="#a9927a"/><stop offset="1" stop-color="#987f6a"/></linearGradient><radialGradient id="radial-gradient-3" cx="376.59" cy="311.35" r="22.44" gradientUnits="userSpaceOnUse"><stop offset="0.8" stop-color="#f0f0ef"/><stop offset="0.84" stop-color="#bdbdbd"/></radialGradient><radialGradient id="radial-gradient-4" cx="267.81" cy="307.67" r="18.65" gradientUnits="userSpaceOnUse"><stop offset="0.95" stop-color="#f0f0f0"/><stop offset="0.97" stop-color="#ededed"/><stop offset="0.98" stop-color="#e3e3e3"/><stop offset="0.99" stop-color="#d3d3d3"/><stop offset="1" stop-color="#bdbdbd"/></radialGradient><radialGradient id="radial-gradient-5" cx="263.7" cy="306.79" r="10.38" gradientUnits="userSpaceOnUse"><stop offset="0" stop-color="#e1bb63"/><stop offset="0.12" stop-color="#d4b15d"/><stop offset="0.34" stop-color="#b1984e"/><stop offset="0.64" stop-color="#786f34"/><stop offset="1" stop-color="#2a3612"/><stop offset="1" stop-color="#232f0d"/></radialGradient><radialGradient id="radial-gradient-6" cx="374.72" cy="311.22" r="10.42" gradientUnits="userSpaceOnUse"><stop offset="0" stop-color="#efbc53"/><stop offset="0.12" stop-color="#e2b44f"/><stop offset="0.34" stop-color="#bf9e46"/><stop offset="0.63" stop-color="#867b36"/><stop offset="1" stop-color="#384c20"/><stop offset="1" stop-color="#374b20"/></radialGradient><linearGradient id="linear-gradient-15" x1="341.09" y1="304.63" x2="396.32" y2="304.63" gradientUnits="userSpaceOnUse"><stop offset="0" stop-color="#afa298"/><stop offset="0.19" stop-color="#aa9d91"/><stop offset="0.46" stop-color="#9b8e7e"/><stop offset="0.78" stop-color="#82765e"/><stop offset="1" stop-color="#6e6244"/></linearGradient><linearGradient id="linear-gradient-16" x1="228.35" y1="306.12" x2="288.86" y2="306.12" gradientUnits="userSpaceOnUse"><stop offset="0" stop-color="#4c422a"/><stop offset="0.17" stop-color="#50462f"/><stop offset="0.37" stop-color="#5d533d"/><stop offset="0.58" stop-color="#726755"/><stop offset="0.81" stop-color="#908475"/><stop offset="1" stop-color="#afa298"/></linearGradient><radialGradient id="radial-gradient-7" cx="264.42" cy="306.51" r="7.16" gradientUnits="userSpaceOnUse"><stop offset="0" stop-color="#d4e5b7"/><stop offset="0.14" stop-color="#d8e5aa"/><stop offset="0.41" stop-color="#e2e687"/><stop offset="0.78" stop-color="#f2e74e"/><stop offset="0.86" stop-color="#f6e741"/></radialGradient><radialGradient id="radial-gradient-8" cx="264.81" cy="306.32" r="6.42" gradientUnits="userSpaceOnUse"><stop offset="0.18" stop-color="#1a1500"/><stop offset="0.59" stop-color="#24210d"/><stop offset="1" stop-color="#31311f"/></radialGradient><radialGradient id="radial-gradient-9" cx="266.09" cy="303.5" r="2.24" gradientUnits="userSpaceOnUse"><stop offset="0" stop-color="#eaf3e1"/><stop offset="0.86" stop-color="#f5f6dd"/></radialGradient><radialGradient id="radial-gradient-10" cx="375.33" cy="311.42" r="6.74" gradientUnits="userSpaceOnUse"><stop offset="0" stop-color="#d1e3b0"/><stop offset="0.1" stop-color="#d5e4a3"/><stop offset="0.28" stop-color="#dee580"/><stop offset="0.52" stop-color="#ede847"/><stop offset="0.73" stop-color="#fcea10"/></radialGradient><radialGradient id="radial-gradient-11" cx="375.1" cy="310.45" r="6.35" gradientTransform="translate(-29.02 -20.99) scale(1.08 1.07)" gradientUnits="userSpaceOnUse"><stop offset="0"/><stop offset="1" stop-color="#3c371d"/></radialGradient><radialGradient id="radial-gradient-12" cx="377.35" cy="308.59" r="2.57" gradientTransform="translate(32.47 60.91) scale(0.91 0.8)" gradientUnits="userSpaceOnUse"><stop offset="0" stop-color="#fff"/><stop offset="0.34" stop-color="#f7faf3"/><stop offset="1" stop-color="#e9f2e0"/></radialGradient><linearGradient id="linear-gradient-17" x1="370.23" y1="279.29" x2="448.19" y2="279.29" gradientUnits="userSpaceOnUse"><stop offset="0" stop-color="#ad9d95"/><stop offset="0.1" stop-color="#9c8e85"/><stop offset="0.24" stop-color="#887c73"/><stop offset="0.41" stop-color="#7a7066"/><stop offset="0.62" stop-color="#72695e"/><stop offset="1" stop-color="#70675c"/></linearGradient><linearGradient id="linear-gradient-18" x1="220.77" y1="278" x2="301.94" y2="278" gradientUnits="userSpaceOnUse"><stop offset="0.17" stop-color="#70675c"/><stop offset="1" stop-color="#ad9d95"/></linearGradient><radialGradient id="radial-gradient-13" cx="375.71" cy="317.8" r="17.77" gradientTransform="matrix(1, -0.08, 0.05, 0.66, -15.48, 137.76)" gradientUnits="userSpaceOnUse"><stop offset="0.79" stop-color="#c6b3a9"/><stop offset="1" stop-color="#b8a59b"/></radialGradient><radialGradient id="radial-gradient-14" cx="267.23" cy="313.72" r="24.66" gradientTransform="translate(-2.54 129.1) rotate(-0.78) scale(1 0.6)" gradientUnits="userSpaceOnUse"><stop offset="0.87" stop-color="#c6b3a9"/><stop offset="1" stop-color="#b8a59b"/></radialGradient><radialGradient id="radial-gradient-15" cx="318.11" cy="434.17" fx="341.85727600524785" fy="417.31608721394025" r="29.12" gradientTransform="translate(-4.33 239.08) rotate(-1.25) scale(1 0.47)" gradientUnits="userSpaceOnUse"><stop offset="0.95" stop-color="#e5afa8"/><stop offset="0.98" stop-color="#e6b1aa"/><stop offset="0.99" stop-color="#e8b8b0"/><stop offset="1" stop-color="#edc4ba"/><stop offset="1" stop-color="#f0cdc3"/></radialGradient><radialGradient id="radial-gradient-16" cx="316.93" cy="437.76" fx="310.6473506576039" r="36.85" gradientTransform="translate(5.93 293.68) rotate(2.47) scale(1 0.3)" gradientUnits="userSpaceOnUse"><stop offset="0.98" stop-color="#f6b1aa"/><stop offset="1" stop-color="#facec5"/></radialGradient><linearGradient id="linear-gradient-19" x1="318.45" y1="421.24" x2="318.45" y2="448.73" gradientUnits="userSpaceOnUse"><stop offset="0" stop-color="#82756e"/><stop offset="1" stop-color="#facec5"/></linearGradient></defs><title>ot4</title><image id="kuva" width="4104" height="5472" transform="translate(43.91 66.1) scale(0.15)" xlink:href="D:%5Cxamk%5C20syksy%5Cgraafinen%20suunnittelu%5C2%5Cot4%5CIMG_20201110_113641.jpg"/><rect class="cls-1" x="16.71" width="645.68" height="887.88"/><g id="kaula"><path id="kaul" class="cls-2" d="M247.39,425.32c-12.85,5.26-10.89,34.3-11.62,58.84-1.46,49.78-13.67,46.89-17,96.78-3.41,50.65,5.08,88.76,12.39,121.54,12.16,54.57,19,83.17,43.35,94.46,23,10.63,48.09-.34,52.65-2.33,37.87-16.53,50.31-60.71,58.06-88.26,7.21-25.58.56-18.52,9.29-105.29,3-29.34,6.7-59.74,3.87-91.35-1.64-18.38-5.28-34.68-7.74-45.68-2.76-12.34-4.19-18.61-7-23.22-10.86-18.05-33.59-22.64-48-25.55-32-6.47-45.38,19.73-75.1,11.61C255.15,425.4,251.63,423.59,247.39,425.32Z" transform="translate(43.91 18.77)"/></g><g id="kaulavarjot"><path class="cls-3" d="M219.87,413.32c11.81-3.39,20.42,51,60.81,64,50.2,16.08,108.76-44.92,112.4-40.1,2.52,3.35-28.66,45.34-75.24,67.2-9.23,4.33-28.82,12.45-48,31.74a151.24,151.24,0,0,0-15.49,18.58c-21,29.14-30.66,58.86-33.29,68.9-17.74,67.92,47,155.25,49.55,154.07.94-.45-6.38-12-15.48-43.36-7.46-25.72-9.68-42.56-17-87-5.94-36.09-6.38-35.64-10.1-59.3C222.26,551.22,201.44,418.62,219.87,413.32Z" transform="translate(43.91 18.77)"/><path class="cls-4" d="M386,457.94c-.89,0-2.24,13.61-2.76,23.24-1,19.4,1.37,22.53-1.89,30.95-4.32,11.18-10.76,11.41-12,19.83-1.54,10.37,7.56,14.5,12.79,26.62,6.29,14.58.4,33.15-11.62,69.68-5.46,16.6-8.19,24.9-13.16,35.61-12.75,27.5-30.67,66.14-63.48,77.42-31.14,10.7-56-10-61.94-.77-6.64,10.39,17.3,49,48,53.42C318.51,799.5,356,749.3,372,715c12.49-26.72,13.66-63.86,15.49-137C389,517.61,387.82,458,386,457.94Z" transform="translate(43.91 18.77)"/><path class="cls-5" d="M384.42,503c-7.79,15.34-17.38,34.24-32.52,49.55a106.44,106.44,0,0,1-43.35,27.09c-7.05,2.26-22.84,7.13-42.58,3.87-23.81-3.92-43.14-18-41.81-24.77.36-1.82,2.42-4.24,2-8.46-.07-.79-.37-4.14-2-4.7-2-.7-6,2.9-7,6.19-2.49,8.12,10.9,20,20.61,26,17.81,10.94,36.45,10.12,46.75,9.66a102.59,102.59,0,0,0,41.8-10.83c14.25-7.27,22.92-16.06,29.37-22.61A137.42,137.42,0,0,0,379,522.32c8.67-16.2,13.17-32.45,12.39-32.77C390.89,489.35,388.23,495.45,384.42,503Z" transform="translate(43.91 18.77)"/></g><g id="kädet"><path class="cls-6" d="M494.35,769.06c2-1,.83-4.93.78-12.38-.1-13.17,3.27-25.15,7.74-41,2.32-8.24,4.24-13.39,2.32-14.71s-6.45,1.73-10.84,4.64a55.5,55.5,0,0,0-7.74,6.19c-7.61,7.83-15.55,27.36-7.74,43.36C483,763.51,491.24,770.65,494.35,769.06Z" transform="translate(43.91 18.77)"/><path class="cls-2" d="M455.65,519c2.4-1,15.56,5,41.8,17,31.62,14.55,38,18.06,45.68,23.23,7.47,5,18.67,12.7,30.19,25.55a166.46,166.46,0,0,1,22.6,34.06c12.79,26.18,81.63,192.45,22.31,240-12.42,10-35.28,18.57-52.65,10.84-14.1-6.28-22.73-22.52-25.55-27.82-2.91-5.48-3.58-8.37-9.29-26.37-8.59-27.08-8-23.51-10.84-33.29-3.89-13.48-5.8-20.23-13.16-62.71-3.27-3.36-7.62-8-12.39-13.94C436.89,634.59,431.85,529.45,455.65,519Z" transform="translate(43.91 18.77)"/><path class="cls-7" d="M389.06,493.55c7.21-9.78,38.06-1.76,58.07,9.19,16.5,9,25.93,19.85,28.64,23.23,7.49,9.33,10.44,17.09,15.49,29.51,23.26,57.29,29.14,61.68,28.32,79.15-.37,7.79-2.14,19.73-9.51,34.06,0,6.06-1,19.34-10.3,30.7-4,4.92-8.79,10.27-13.93,10.84-17.6,1.92-18.83-75.76-64.26-154.07C401.56,521.65,382.22,502.84,389.06,493.55Z" transform="translate(43.91 18.77)"/><path class="cls-2" d="M-5.77,800.58C-.51,796,7.31,789,16.68,780.45,40,759.18,51.86,748.25,63.9,734a291.52,291.52,0,0,0,23.23-31.74c28.93-44.78,83.34-153.34,57.29-175-6.19-5.14-16.79-5.25-34.07-5.42-6.35-.06-19-.19-31.74,3.87-17.79,5.67-25.85,16.33-50.93,42.73-33.23,35-29.5,27.25-36.55,37-32.09,44.44-34,100.07-34.84,127.75C-44,743.85-45.71,808.05-29,813-21.59,815.15-12.74,808-5.77,800.58Z" transform="translate(43.91 18.77)"/></g><g id="käsivarjot"><path class="cls-8" d="M516.81,650.71s-3.61,9.54-19.36,51.87c2.48,6,6.05,15,9.68,26.32,5.85,18.2,8.21,30.81,10.45,41,9,41.07,13.51,61.61,25.55,71.95,18.41,15.81,53.78,18,64.26,3.92,20.93-28-56.94-121.44-63.49-129.29C529.13,698.8,523,693.29,523,693.29c-5.4-4.85-7.34-5.85-9.29-9.29C505.91,670.24,516.84,650.72,516.81,650.71Z" transform="translate(43.91 18.77)"/><path class="cls-9" d="M447.82,570.06c4.77-30,8.84-37,11.86-37,3.56,0,6.58,9.72,7.68,14.81,2.58,11.95-.61,20.56-2.79,30.2a124.16,124.16,0,0,0-2.79,34.18Z" transform="translate(43.91 18.77)"/><path class="cls-8" d="M589.58,672.61c-12.73-40.1-19.05-60.17-27.1-73.55-43.73-72.73-140.41-95.92-141.09-94.6-.32.63,18.35,12.45,41.22,20.28,9.62,3.3,11.61,3,23,6.86a262.36,262.36,0,0,1,37.75,16.33c6.25,3.37,30.73,16.81,49.94,37.88,24.79,27.17,31.87,57.1,39.64,92.66,11.44,52.4,11.14,102.77,6.81,103.3C615.89,782.26,611.67,742.22,589.58,672.61Z" transform="translate(43.91 18.77)"/><path class="cls-10" d="M496.21,755l6.66-37.49-4.26-12.36L502.87,687l-8.52,21.42-7,4.12L492,725.72Q494.12,740.35,496.21,755Z" transform="translate(43.91 18.77)"/><path class="cls-11" d="M-16.61,681.68c4.38,1.69,10.77-10.24,37.93-46.45,25.29-33.71,38.26-50.86,54.2-65,25.07-22.3,42.7-28,41-32.51-2.37-6.34-41-4-72.78,15.48-33.07,20.3-46.41,51.69-51.87,65C-19.39,645.81-23.42,679.05-16.61,681.68Z" transform="translate(43.91 18.77)"/><path class="cls-8" d="M-5,801.68c10.5-8.21,18.83-15.49,24.77-20.91s10.72-10.09,20.13-19.35c12.15-11.94,18.23-17.92,19.36-19.36,16.17-20.62,14.11-53.43,8.51-55-7.91-2.18-13.26,60.95-57.29,83.61-8.65,4.45-24.82,10.45-24.77,19.35C-14.26,795-9.25,799-5,801.68Z" transform="translate(43.91 18.77)"/></g><g id="paita"><path id="paita-2" data-name="paita" class="cls-12" d="M382.87,446.23c.3,1.16.7,2.79,1.11,4.75a99.34,99.34,0,0,1,2,23.12c-.25,8.07-1.38,12.28-2.32,18.58-2.2,14.72-.29,20.28,0,40.26a255,255,0,0,1-1.55,37.16c-1.26,10.17-4.67,37.64-10.84,55a34.16,34.16,0,0,0-2.32,12.39C369,644,371.09,646,372,652.16c1.33,8.72-1.14,16-3.09,21.68-2.67,7.81-4.57,8-8.52,18.58-2.44,6.52-2,7.17-3.87,12.39-3.19,8.82-7.2,14.49-13.94,24a215.61,215.61,0,0,1-16.26,20.13c-9.81,10.82-14.71,16.23-21.67,20.12-5.1,2.86-16.75,9.39-28.65,5.42a27.74,27.74,0,0,1-9.29-5.42c-5.88-5-8.22-11.13-10.06-16.25-7.28-20.21-9.29-30.2-9.29-30.2-4-19.65-4.68-26-7-37.93-6.22-32.36-10.69-35.61-12.39-56.52-.42-5.2,0-14.64.78-33.29,1.44-33.43,2.16-50.14,4.64-70.45,3-24.79,7-45.68,7-45.68,3.68-19.54,6.47-29.48,4.64-30.19-2.36-.92-9.78,14.82-22.45,37.93-26.51,48.39-31.42,47.67-48,82.07-15.68,32.53-12,34.65-21.67,44.9-23.09,24.47-45.52,14-63.49,36.39-5.76,7.17-9,25.68-15.48,62.71a549.85,549.85,0,0,0-7,57.29c-.31,3.89-1.72,12.48-1.48,24,.13,6,.6,10.6.71,11.6,1.54,14.75,4.36,20.52,4.64,31,.31,11.64-1.46,13.85-.77,17,1.27,6,13.17,7.66,15.49,8,22.57,3.43,236.07,7.18,253.15,7.48h0c.21,0,62.88,16.8,109.94,2.32,12.32-3.79,24.33-12.1,34.84-19.36,5.65-3.91,10.08-7.42,11.61-13.16,1.77-6.67-2.44-8.63-3.1-19.35-.49-8,4.34-31.14,3.87-24.78l2.33-20.13c-5.79-26.73-6.2-34.83-6.2-34.83-.6-11.86,1.34-10.64,0-17-1.94-9.27-5.52-9.48-13.93-27.09-4-8.34-3.71-9.41-7.75-17-2-3.79-3.44-6.13-4.64-10.06a38,38,0,0,1-1.55-13.16c.42-9.94-5.45-27.27-15.48-58.84-15.13-47.62-16.32-54-21.68-67.36-3.65-9.11-6.53-14.78-10.06-26.32-2-6.65-2.35-8.92-4.65-13.16-4.1-7.56-7.44-8.33-12.39-17-3-5.38-2.48-6.32-5.42-11.61A58.72,58.72,0,0,0,382.87,446.23Z" transform="translate(43.91 18.77)"/></g><g id="paitavarjot"><path class="cls-13" d="M493.58,848.9c1.21,0,2.55-7.27,1.55-14.71-.95-7-3.41-6.72-3.87-12.38-.49-6,2.19-7.42,3.87-16.26,1.24-6.53,0-6.91.77-15.49,1.09-12,3.63-12.28,3.87-20.12.34-10.88-4.54-10.59-5.42-23.23-.76-11.13,2.8-14.52,0-23.23-1.76-5.49-4.64-8.68-7-11.61C475.71,697.1,472,681.43,469.44,673c-2.85-9.54-2.91-14.34-4.5-24.56-3.27-20.91-6.92-25.91-28.36-90.67-6.15-18.59-6.5-20.16-9.58-28.66a281.51,281.51,0,0,0-27.87-56.41c-3.67-5.65-6.14-8.92-7-8.52-1.52.73,3.82,13.24,8.52,28.64,9.25,30.37,3.6,31.43,10.84,48.78,8.12,19.48,15.84,19.56,24.77,41.8,3.27,8.14,3.6,11.54,7.74,29.42,7.17,31,13.69,57.84,26.32,86.71,5.29,12.07,8.88,18.11,13.17,31.75,0,0,7.57,24.07,4.64,41.8a60.58,60.58,0,0,1-2,8.8c-1.27,4.18-2.24,5.25-2.67,11.33-.59,8.17.73,11.52,6.56,41.83C492,845,492.69,848.94,493.58,848.9Z" transform="translate(43.91 18.77)"/><path class="cls-14" d="M493.58,848.9c-1.91.37-7.23-17.61-10.21-30.88a219.48,219.48,0,0,1-4.5-28.73c-8.26-55-9.25-68.3-12.66-79.17a79.5,79.5,0,0,0-2.82-7.54s-.67-1.55-1.41-3.1c-5.58-11.66-14.85-25.54-14.85-25.54a35.8,35.8,0,0,1-5.92-10.62,36.23,36.23,0,0,1-1.82-14.93c1.05-15.38-20.05-42.94-31.38-72.66-3.63-9.53-1.35-6.35-16.62-82.18-2-10.13-3.37-16.63-6.2-25.55-5.06-16-10.09-24.54-8.51-25.55,2.09-1.33,13.06,12.23,17.8,18.49A155.89,155.89,0,0,1,410,485.81c3.92,7.92,6.62,14,7.74,18.58.78,3.21,1.52,5.74,2.3,8a149.73,149.73,0,0,0,6.85,16.81c4.5,9.38,3.17,17,5.56,34.77,2.31,17.18,6.33,30.82,11.61,48.77,5.19,17.6,6.4,17.75,7,24.78,0,0,1.33,16.53,4.65,22.45,1.57,2.81,3.38,5.55,3.38,5.56,1,1.52,1.79,2.62,2,3,6.77,9.45,14.35,20.29,19.36,31,2.87,6.12,4.07,10.88,5.69,17.42,3.1,12.59,3.54,68.75,4.37,87.87C491.68,832.25,495.39,848.55,493.58,848.9Z" transform="translate(43.91 18.77)"/><path class="cls-14" d="M462,865.57c-.24-2.13-94.4-10.59-282.72-27.51-12.74-1.14-39.63-3.55-57.29-23.22-32.79-36.52-10.06-106.16-8.52-110.71.36-1,.75-2.09,1.52-4.19a439.58,439.58,0,0,1,45.71-90.26c23.68-35.4,29.67-31.5,48-58.84,16.49-24.6,30.15-55.43,37.16-94.45l-.78-7.84L181.77,554.46l-18,32.77c-.06,8.19-2.29,13.71-4.43,17.32-7.87,13.25-21.2,17.58-47.44,26.8-6.51,2.29-15.27,5-22.45,13.17a44.82,44.82,0,0,0-7,11.61,208.83,208.83,0,0,0-8.65,26.26C56.44,750.91,62.35,793.94,62.35,793.94c1.46,33.86,2.18,50.8,7.43,62.78C86.67,895.29,462.93,874,462,865.57Z" transform="translate(43.91 18.77)"/><path class="cls-14" d="M187,754.45c0,.23,22.76-3.38,46.45,8.52a80.25,80.25,0,0,1,16.26,10.84L187,770.71l110.64,27.87-30.12-22.25a105.22,105.22,0,0,0-25.2-14.91C213.09,749.28,187,754.21,187,754.45Z" transform="translate(43.91 18.77)"/><path class="cls-14" d="M242.74,741.29a90.7,90.7,0,0,1,12,6.06l-9-33.16-37,13.16,35.5-21.44c-2.15.78-5.36,2-9.18,3.64a157.53,157.53,0,0,0-15.48,7.74c-18.81,10.48-28.31,12.28-27.87,14.71C192.33,735.83,215.66,730.05,242.74,741.29Z" transform="translate(43.91 18.77)"/></g><g id="naama"><path class="cls-15" d="M314.23,184.06c-24.83,7.07-27,10-35.62,8.52-12.56-2.19-15-9.63-25.55-8.52-12.42,1.32-20.4,12.87-21.67,14.71-3.49,5-4.67,9.53-7,21.68-4.45,23.55-6.19,38.71-6.19,38.71-1.36,11.81-2.58,22.5-3.88,38.71-2.06,25.86-3.1,38.79-2.32,50.32,1.07,15.79,3.86,29.09,6.2,40.26,2.56,12.24,3.84,18.36,6.19,24.78,7.38,20.14,18.77,33.39,24.77,40.25,5.87,6.7,10.69,10.95,19.36,18.58,9.92,8.74,15,13.18,21.68,16.26a56.92,56.92,0,0,0,50.32-.77c5.63-2.84,7.62-5,22.45-18.58,19.42-17.79,19.64-17.41,23.23-21.68a126.45,126.45,0,0,0,16.25-25.55c6-12.36,3.27-11.66,12.39-35.61,4.15-10.9,6.55-15.87,8.52-25.55a166.72,166.72,0,0,0,2.32-17c.82-8,1-13,1.55-24,.81-16.82,1.21-25.23,1.55-29.42.93-11.62,1.49-12.4,3.09-29.42,1.38-14.61,2.06-22,1.55-25.55-2.22-15.5-10.65-26.46-14.71-31.74-4.79-6.24-7.68-10-13.16-13.16-8.31-4.8-13.7-3.12-27.87-6.2-13.63-3-12.46-5.35-21.68-7C345.51,175.26,334.94,178.17,314.23,184.06Z" transform="translate(43.91 18.77)"/></g><g id="naamavarjot"><path class="cls-16" d="M315.5,199.38c-.36,1.24-4.3-.15-17.79,1-8.47.72-15,1.34-22.57,4.33a56.74,56.74,0,0,0-13.82,8.05c-11.51,9.13-25.49,28-20.13,37.94,3.7,6.83,13,2.84,29.42,12.39,10.73,6.23,18.11,14.56,17,16.25-1.36,2.14-15.54-7.26-37.17-7.74-4.44-.1-8.36.2-12.38,2.33-6.46,3.41-12.44,11.14-11.62,18.58,1,8.75,11,13.16,9.29,16.25-1.31,2.38-6.7-.23-13.16,3.1-.45.24-5.58,3-7.74,7.74-4.41,9.81,7.74,19.23,4.65,25.55-3.65,7.46-28.18,9.89-36.39-.77-11.62-15.1,23.69-38,29.42-94.45,1.74-17.15-.05-29.49,9.29-44.13,2.08-3.27,12.77-19.24,33.29-24.78C286.82,172.47,316.62,195.64,315.5,199.38Z" transform="translate(43.91 18.77)"/><path class="cls-17" d="M207.13,318.84c6.67-.33,14.11,23.16,17,36.39,3.86,17.49.7,21,6.19,28.64,7.41,10.26,18.72,11.5,19.77,20.87.22,2,.45,5.36.84,12.42a38.25,38.25,0,0,0,1.07,7,42.06,42.06,0,0,0,5.42,13.93,57.57,57.57,0,0,1,4.21,8.81c3,8.29,3.52,11,5.86,16.74A49.92,49.92,0,0,0,282.1,482.9c8.71,6.82,18.43,8.81,18.35,9.05s-5.65-1.44-7.9-2.47c-9.88-4.47-27.77-14.64-47.49-40.93h0q-1.69-1.85-3.41-4a76.48,76.48,0,0,1-7.22-10.73c-2.25-3.75-4-7-5.17-9.4a137.18,137.18,0,0,1-7.19-16.88c-.47-1.36-1.12-3.26-2.21-6.29-.62-1.73-1.44-3.91-2.7-7-12-29.55-19.63-34-20.1-48.33C196.65,332.92,202.1,319.09,207.13,318.84Z" transform="translate(43.91 18.77)"/><path class="cls-18" d="M293.58,201.57a232,232,0,0,1,65.29.37c22.54,3.39,30.42,8.16,35.61,13.93,3.95,4.39,6.77,12,12.39,27.1,5,13.4,7.47,20.11,8.84,29.32.49,3.29,2.36,17.09,3.39,22.93,1,5.46,1.84,9.43,2,10.36,4.84,23.16,4.18,67.26,6.64,67.45s.71-48.28,10.84-116.13c2.43-16.25,6.21-38.1-6.19-55.74-6.78-9.63-16.32-15.08-22.45-18.58a91.61,91.61,0,0,0-43.81-11.71C327,170.1,299.56,195.72,293.58,201.57Z" transform="translate(43.91 18.77)"/><path class="cls-19" d="M429.13,332.72c-4.26,15-7.35,18.25-18.39,44.18-9.83,23.1-9.47,25.47-14.71,30.2-6.61,6-19.35,13.18-24.77,16.25-3.79,2.15-9.41,5.19-9.29,5.42.25.5,25.13-15.32,29.42-10.83,6.61,6.91-39.46,58.38-37.85,59.76,1.31,1.13,39.06-26.92,61.07-76C435,356.27,434.37,309.61,434,309.55A170.77,170.77,0,0,1,429.13,332.72Z" transform="translate(43.91 18.77)"/><path class="cls-20" d="M281.45,428.77a58.43,58.43,0,0,0,21.68,17c5.74,2.58,14.35,6.45,23.22,4.64,2-.4,10-2.31,10.07-2.32l7-5.42L333.32,455.1H297.64Z" transform="translate(43.91 18.77)"/><path class="cls-21" d="M263.65,404a24.31,24.31,0,0,0-1.55,13.16,24,24,0,0,0,7,13.16v-9.38C275.26,423.35,263.65,404,263.65,404Z" transform="translate(43.91 18.77)"/><path class="cls-22" d="M386,280.13c.26.37-10.67,8.74-19.36,14.71,0,0-8.28,5.69-23.22,14.71a69.63,69.63,0,0,0-3.12,7.06,44,44,0,0,0-1.41,4.76s-2.73,10.6-2.46,20.33c0,.11,0,.21,0,.21h0c0,.09.27,4.9.4,6.19A87,87,0,0,0,340,362.9c3.62,11.45,7.66,16.7,5.16,20.39-.41.61-.79.86-2.06,2.58-2.54,3.43-3.7,6-3.87,5.94s1.6-3.31,2.32-6.46c1.65-7.2-2.41-13.83-3.61-16-7.14-12.88-5.78-35.79-4.65-42.77C338.25,296.34,385.63,279.65,386,280.13Z" transform="translate(43.91 18.77)"/><path class="cls-23" d="M254.87,279.29c.45-1,7.89,2.84,27.1,8.52,9.33,2.76,15,4,17.73,9.15,1.36,2.55.67,3.58,2.91,10.2A81.29,81.29,0,0,0,307.26,318c4.75,9.06,7,8.06,9.29,13.42,3.12,7.34-1.38,8.56-1.81,28.45-.07,3.17-.34,7-2.84,9.74-3.79,4.13-9.22,1.9-12.9,6.45a12,12,0,0,0-2.32,8c.29,5.05,3.86,8.23,3.52,8.48s-4-2.58-5.33-7.19a13.88,13.88,0,0,1-.26-6.45c1.25-6.67,5.79-7.44,9-13.67,1.47-2.85,1-3.56,2.58-18.52,1.25-11.77,1.53-11.08,1.54-13.16.13-16.19-16.89-29.5-27.09-37.49C266.13,284.69,254.32,280.55,254.87,279.29Z" transform="translate(43.91 18.77)"/><path class="cls-24" d="M302.61,393.61c0,.29,4.27.15,9,2.84a21.17,21.17,0,0,1,5.16,4.13,15.13,15.13,0,0,0,9.8-.52c1.2-.53,1.57-.92,4.39-2.83,4.52-3.07,8.34-5.28,8.26-5.42s-12.59,9.93-20.91,6.19c-1.75-.79-2.06-1.63-4.9-2.84C307.87,392.78,302.65,393.3,302.61,393.61Z" transform="translate(43.91 18.77)"/></g><g id="hiukset"><path class="cls-25" d="M207.9,248.81c2,.16-3.12,39.09-.77,90.93,4.83,106.71,34.49,118.45,17,162.23-11.09,27.82-41.08,67.35-51.87,99.09-4.62,13.6-7.74,26.33-7.74,26.33-9.45,38.53-3.37,46.52-9.29,61.93-13.23,34.46-53.39,25.89-78.2,60.39-31,43.13-2.3,107.72-6.19,108.39-3.31.57-22.25-46.58-12.39-100.65,3.44-18.85,6.12-31.21,15.49-44.9,21-30.72,49.26-26.06,65-55.74,6.11-11.52,6.48-20.89,7.74-31.75,6.12-52.53,25.4-71,39.49-119.22,13.69-46.87.05-45.07,10.83-181.16C200,288.05,205.89,248.65,207.9,248.81Z" transform="translate(43.91 18.77)"/><path class="cls-26" d="M194,508.16c7,21.08,12.35,23.74,15.48,24,15.6,1.3,40.7-49.17,31-81.19a210.38,210.38,0,0,0-15.19-34.29c-3.67-6.7-6.58-11.21-7.47-12.65-17.83-28.84-5.12-89.58-8.29-90.19C202.16,312.43,166,423.66,194,508.16Z" transform="translate(43.91 18.77)"/><path class="cls-27" d="M416.94,502.74c1.79,20,11.48,33,12.19,32.73,1.07-.34-11.78-33.28-3.76-57.59a122,122,0,0,1,6.85-16.17c4-7.7,6.37-9.78,11-17.45a113.79,113.79,0,0,0,10.84-22c1.35-3.87,4-11.63,6.19-28.29a275.18,275.18,0,0,0,2.11-39.52c-.32-27.95-2.1-49.89-2.88-59.16-2.65-31.24-6.78-69.76-7.75-69.68s5.39,60,3.1,146.32c-.26,9.89-.46,14.83-.77,17.81C448.16,446.44,413.34,462.91,416.94,502.74Z" transform="translate(43.91 18.77)"/><path class="cls-28" d="M457.19,200c9.5-.9,22.89,29.95,26.33,58.07,8.4,68.82-41.3,134.32-53.33,130.1-5.27-1.85-1.48-32.21,6.1-92.94C444.14,232.35,448.25,200.89,457.19,200Z" transform="translate(43.91 18.77)"/><path class="cls-29" d="M346.4,144.89a38.64,38.64,0,0,1,.08-6.79c.79-20.66-16.67-44.7-37.5-57.8-9.76-6.13-15.37-6.38-15.14-8.78.81-8.43,69.7-4.92,81.29,5.42a59.82,59.82,0,0,0,9.29,7c1.29.79,2.49,1.46,3.59,2a62.1,62.1,0,0,0,5.7,2.62c4.52,1.81,66.29,47.84,53.42,75.87-10,21.77-60.91,23.69-82.84,7C360.19,168.26,347.88,159,346.4,144.89Z" transform="translate(43.91 18.77)"/><path class="cls-30" d="M344.94,160.55c6.21-16.33,1.07-19.7,5.41-38.71,3.24-14.15,7.41-32.44,21.68-38.71,9.56-4.2,19.81-1.33,21.68-.78a32.24,32.24,0,0,1,15.48,10.07c2.62,3.19,5.78,7.06,4.65,10.06-1.84,4.9-12.59,1-24,5.42-17.21,6.75-24.57,33.6-26.32,39.49-1.39,4.65-3.27,12.54-10.07,18.93-3.08,2.9-8.19,6.44-10.06,5.07S343.61,164,344.94,160.55Z" transform="translate(43.91 18.77)"/><path class="cls-31" d="M345.71,155.13c-.41-17.78,14.58-30.72,19.35-34.84,5.88-5.07,28.35-24.47,52.65-16.26,16.48,5.58,24.17,20.61,27.1,26.32,10.78,21.08,6.47,43.19,4.64,43.36-2,.19.33-25.66-17-41.81-2-1.87-11.89-11.06-25.55-10.84s-23.17,9.53-31,17c-16.22,15.62-20.35,31.46-25.55,30.19C346.07,167.24,345.72,155.7,345.71,155.13Z" transform="translate(43.91 18.77)"/><path class="cls-27" d="M176.94,335.52C173,320.44,222.7,189.69,233.82,195c7.35,3.48-31.12,52.65-25.44,133.61,3.82,54.47,27.39,120,27.39,120s.37,3.43.74,7c.46,4.37.8,7.61.81,7.73.44,4.21.69,34.85-13.16,60.39-12,22.09-30.39,32.77-44.13,41.8-65.34,43-102.45,99.57-103.74,98.32-1.6-1.54,86.84-56.94,109.16-152.51,18.66-79.9-2.32-152.52-2.32-152.52,0-.15-1.17-4.27-2.67-9.89C180.46,348.85,178.4,341.17,176.94,335.52Z" transform="translate(43.91 18.77)"/><path class="cls-32" d="M314.27,120.93c5.81,4.86,19.62,1.72,22.12-5,1.32-3.57-.68-7.67-6.16-15-13.54-18-22.89-30.43-37-33.74C273.53,62.57,254.59,78,247.05,84.07,195.33,126,166.57,236,124.29,402.45c-20.9,82.3-31.4,124.15-34.06,158.71-1.37,17.71-2.6,48.3-11.62,90.58-5.51,25.83-11.53,44.82-10.06,45.32,2.65.91,25.78-59.74,32.51-77.83C188,385.73,202.13,106.13,276.81,97.06c6.95-.84,18.14.21,33.29,12.39C312.2,114,310.8,118,314.27,120.93Z" transform="translate(43.91 18.77)"/><path class="cls-33" d="M179.26,299.9c7.92-.7,12.05,30.21,32.51,81.29,8.57,21.38,13.23,29.41,15.49,46.46a132,132,0,0,1-1.55,42.58c-7.63,38-30.55,62.67-38.71,71.22-48.39,50.72-119.69,58.21-120,57.29-.21-.61,30.94-6.74,70.45-31,20-12.28,42.79-26.57,60.39-54.19a134.88,134.88,0,0,0,17.81-41.81A123,123,0,0,0,218,430c-.67-5.14-2.58-17-20.91-53.42s-29.87-51.32-24-68.13C174,305.87,175.94,300.2,179.26,299.9Z" transform="translate(43.91 18.77)"/><path class="cls-34" d="M70.87,858.1C67.59,859.57,4,770.53,32.94,718.74c11.63-20.79,31-36.39,31-36.39,19.07-15.8,25.94-12.29,35.62-24.77,10.85-14,6.93-24.49,14.71-52.64,5.82-21.08,13-33,18.58-44.91,23.8-50.24,32.38-123.71,34.84-144.77,7.77-66.66-2.13-83.42-4.21-121.36h0a266.35,266.35,0,0,1,2.66-58.25C182.15,138.93,236,88.79,236,88.79c13.88-12.92,33.12-30.33,55.75-27,15.79,2.31,26.53,13.8,33.81,21.36,11.88,12.34,16.69,27.32,26.32,57.29,8.35,26,7.91,33.88,4.13,36.68-1.55,1.15-3.11,1-19,1-11.57,0-12.38.05-12.73,0l-.1,0c-3.07-.71-8.12-69.57-8.12-69.57-1-14.13-2-20.77-6.73-27.66L309,80.3a85.11,85.11,0,0,0-17.21-18.53c-11.06-8-69.56,17-93.93,71.68-14.19,31.87-11.93,62.72-9.29,96.78,2.24,28.92,6.39,34.45,11.61,65.8,4.93,29.62,16.91,111-5.42,194.32-2.06,7.72-6.94,24.42-14.71,54.2-13.5,51.75-15.08,60.86-19.35,75.1-9.4,31.34-19,63.4-44.91,89.8-28.95,29.53-48.86,22-61.93,45.68C30.63,797.18,73.56,856.89,70.87,858.1Z" transform="translate(43.91 18.77)"/><path class="cls-35" d="M-4.23,604.94a252.9,252.9,0,0,1,24-35.62s14-17.21,27.72-27.42c.64-.48,1.21-.88,1.7-1.22A67,67,0,0,1,57,535.86c5.79-3.29,7.51-3.65,10.36-5.75a30.58,30.58,0,0,0,7.8-8.92c5.16-8,11.16-15.54,15.83-23.87,10.85-19.32,13.38-20.55,20.9-34.06,6.35-11.41,22.28-42.38,27.87-82.07,2.52-17.82.24-18.21,1.55-44.9,1.07-21.69,4.8-71.79,24.78-128.52,9.87-28,18.83-45,27.09-58.06C204.78,131.34,214.28,121.6,218,118c13.31-13.12,24.47-24.26,42.58-27.87,5.13-1,27.1-5.41,45.68,8.51,15,11.25,18.91,27.8,20.12,33.29,1.86,8.41.85,20.09,0,26.33-.16,1.19-.83,5.86-1.54,12.38-.66,6-.45,6.81-.64,7.43a3,3,0,0,1-.14.31c-.43.88-17.74,11.56-43.35,3.88-18.5-5.55-17.85-13.64-31-14.71-14-1.15-29.25,6.87-35.61,18.58-6,11.1-2.75,23.11-1.55,29.42,7.81,40.93-30.76,57.18-44.13,116.13-8.6,37.92,3.33,49-3.1,113-1.83,18.25-4.1,30.25-7.74,49.55-4.8,25.41-7,30.38-8.52,33.29-11.83,23.3-35.25,33.73-41.8,36.38-30.59,12.39-45.63-1.84-73.55,9.29C14.65,580.79,2.59,595.08-4.23,604.94Z" transform="translate(43.91 18.77)"/><path class="cls-25" d="M355.37,171.24c-.27-4.33,4.32-4.27,16.66-16.89a52.46,52.46,0,0,1,14.66-11.16,18.34,18.34,0,0,1,3.15-1.22c6.78-2,12.52-.83,24,1.55,10.72,2.22,18.51,3.83,27.1,9.29,8.33,5.29,12.89,11.31,17.8,17.8a116.51,116.51,0,0,1,17.81,35.62c5.3,17.13,8.27,25.6,6.19,35.61-2.42,11.66-9,17.61-9.29,31.74a34.06,34.06,0,0,0,2.32,13.94,43.72,43.72,0,0,0,6.2,10.06c5.24,6.94,9,9.38,8.51,10.07-.73,1.1-12.63-1.95-20.49-11.23-8.34-9.85-9.13-23.17-9.88-35.87-.28-4.83-.16-5.83-.46-14.93-.16-4.84-.57-11.32-1.68-20.81-1.48-12.67-2.28-19.15-5.42-26.33-2.13-4.86-8.11-18-22.45-26.32A45.27,45.27,0,0,0,411.52,166a47,47,0,0,0-23.23,3.87c-8.81,3.91-11,7.42-15.84,9.71a11.71,11.71,0,0,1-4.77,1.59C362.17,181.37,355.69,176.26,355.37,171.24Z" transform="translate(43.91 18.77)"/><path class="cls-36" d="M438.61,231c-3.14-.38-10.33,25.69-11.71,48a253.56,253.56,0,0,0,.07,32.77,124.06,124.06,0,0,1,.8,12.93c0,9.64-1.48,15.27-3.09,24.77-1.22,7.16-.53,4.75-3.87,34.84-2.33,20.88-3.48,31.32-3.87,33.29-6.1,30.85-17.77,41-12.41,58.83.61,2,3.82,12.7,9.31,13.17,10.15.86,20.26-33.93,22.45-39.48,13.84-35,5.07-58,1.55-113.81C433.76,271.61,442.5,231.47,438.61,231Z" transform="translate(43.91 18.77)"/><path class="cls-37" d="M469.58,534.48c.24-.35-64.56-55.87-65.12-76.27a37.12,37.12,0,0,1,.78-8.71c2.79-10,11.65-13.91,14-33.47,1.35-11.13,2.35-30.22,9.29-37.16,0,0,8.84-8.2,10.84-14.71a9.77,9.77,0,0,1,.77-2c1-2,2.52-3,7-11.16a185.85,185.85,0,0,0,9.29-19.35s6.35-16.18,7-34.07c.85-24.85-16.45-68.19-24.78-66.58-.76.15-1.86.75-4.63,8.62-6.37,18.07-6.86,31.86-6.86,31.86,0,30.58.81,36.59-.26,56.25-.66,12.28-1.48,25.91-6.05,43-1.67,6.24-1.13,2.78-10.07,30.19-2.29,7-4.23,13.09-8.26,20.84a87.1,87.1,0,0,1-6.85,11.81c-7.81,11-9.58,14.77-10.44,16.55C375.9,469.36,469.3,534.89,469.58,534.48Z" transform="translate(43.91 18.77)"/><path class="cls-38" d="M488.16,259.65c2.14-.07,13.81,81.92-6.19,89-6.7,2.38-14.76-4.41-17.81-7-13.74-11.56-16-30.64-20.13-65,0,0-3.08-20.79-10-37.06-.46-1.08-1-2.06-1.56-3.2-7.2-13.57-11.95-15.8-15.48-28.65-1.21-4.38-2.28-10.15-7.27-14.66-4.05-3.67-9.19-5.14-11.81-5.89-5.27-1.51-5.87-.46-13.2-1.88-4.19-.81-5.91-1.27-13.33-3.21-4.6-1.2-11.16-2.87-19.29-4.74a65.45,65.45,0,0,1,22.31-26.13,53.62,53.62,0,0,1,18.59-8.52c22.36-5,45.88,5.61,60.38,20.13a74.46,74.46,0,0,1,18.58,31.74c7.09,24.63-3.33,36.84-4.64,66.58-1.59,36.07,11.51,68.6,16.26,68.13C490.31,328.65,486.2,259.7,488.16,259.65Z" transform="translate(43.91 18.77)"/><path class="cls-39" d="M337,178.07c2.21-5.33-11.11-15.92-19.94-22.94-4.41-3.51-9-7.17-14.71-10.07-22.11-11.25-46.78-3.95-51.87-2.32-28.3,9.07-41.86,32.2-45.67,38.71-2.26,3.85-4.67,9.5-9.29,20.9-3.7,9.12-9.91,24.44-15.49,42.59-6.44,21-6,26.15-15.48,69.67-8.54,39.29-8.56,33.59-9.29,41-3.33,33.81,8.11,39.24,9.29,82.83.24,8.92,0,17.2-.08,18.1a184.34,184.34,0,0,1-2.4,21.88A155.62,155.62,0,0,1,158.35,495c-2.3,8.08-4.8,14.05-13.93,33.29-6.62,14-9.94,20.94-10.84,22.45-6,10.06-12.82,21.48-26.32,30.2-8.72,5.62-16.46,7.69-22.45,9.29-9.87,2.63-22.9,6.11-36.39.77-3.71-1.47-10.83-4.4-14.71-11.61a23.13,23.13,0,0,1-2.54-8.71c-1.05-8.9,2.43-15.85,5.34-21.48,2.28-4.41,6.64-11.45,8-10.85,2.22,1-8.93,18.62-2.32,29.42s27.42,8.82,30.19,8.52c17.56-1.9,29.34-12.71,36.39-19.35,14.35-13.54,21.44-29.16,35.61-60.39,4.07-9,3-7.41,7.74-17.81,12.88-28.42,17.89-33.85,23.23-49.55,3.94-11.59,1.31-8.93,7-32.51,7.22-30.07,10.62-30.78,14.71-51.87,4.58-23.58.27-22.41,5.42-44.91,4.27-18.6,7.71-21.54,10.84-41,1.84-11.46,1.43-15.28,4.65-23.22,3.45-8.54,5.84-8.85,13.16-24a56,56,0,0,1,6.19-10.84c2.78-3.69,5.24-5.86,10.07-10.07,6.48-5.65,10.25-8.89,16.26-11.61a53.6,53.6,0,0,1,9.29-3.1c10.39-2.78,19-5.17,27.09-1.55,1.72.77,1.71,1,3.74,2.15C316.1,183.38,334.74,183.55,337,178.07Z" transform="translate(43.91 18.77)"/><path class="cls-40" d="M205.58,241.42c-4-.77-30.34,76.46-32.85,168.72-.93,34,5.3,35.18.33,70.15C162.33,555.87,159.65,594,139,625.06c-14.14,21.28-33.93,39.14-51.87,55.33C67.6,698,64.1,698,54.61,709,23.3,745.36,23.71,789,22.87,788.77c-1.07-.22,9.36-68.3,35.61-90.93,9-7.79,20.13-15.49,20.13-15.49a252.05,252.05,0,0,1,22.45-13.93c25.57-14.65,42.2-59.07,46.46-70.45,18-48.23,18.48-90,18.58-93.68C169.58,369.61,210.66,242.41,205.58,241.42Z" transform="translate(43.91 18.77)"/><path class="cls-41" d="M183.9,589.45c.38.11,5.16-17.81,10.68-28.69.44-.85,2-3.94,3.81-8.16s2.92-7.57,3.49-9.27c0,0,.31-1,.6-1.88,2.05-6.52,3.68-14.88,5.42-24.77.65-3.64,1-5.46,1.26-7.25,0,0,1.72-10.63,2.61-19.85,1.32-13.53-8.09-27.63-13.16-44.9-6.91-23.57-3.25-44.48-1.55-54.2,3.72-21.2,9.5-21.43,13.94-45.67,2.26-12.32.71-12,2.94-41.7,2.57-34.33,4.26-28.91,5.25-51.25.87-19.77.24-29.21,5.75-42.54,3.78-9.17,8.24-14.77,13.93-18.58,2.36-1.58,9.15-6,17.81-5.42,7.35.49,7.87,4,17,7,12.35,4,23.6.28,29.42-1.55,7-2.2,15.83-5,16.3-9.74.31-3.22-3.27-6-20.95-16.58-14.74-8.8-22.1-13.26-24.77-13.94-19.49-4.91-38.07,7.55-44.13,11.62-38.14,25.58-25.85,80.2-46.45,196.64,0,0-8.87,50.15,2.32,77.42,3.26,7.94,6.15,16,9.29,24,3.7,9.41,5.13,12.87,6.2,18.58.29,1.61,1.4,7.92.77,20.13a155.06,155.06,0,0,1-3.1,24C192.64,550.64,183.35,589.3,183.9,589.45Z" transform="translate(43.91 18.77)"/></g><g id="silmät"><path class="cls-42" d="M358.87,310.48c2.69-3,6-6.8,11.72-8.44s10.15-.17,16.15,1.73c3.81,1.21,11.79,3.78,11.87,7.23.05,1.91-2.58,3.69-6.19,6.19a23.39,23.39,0,0,1-4.59,2.69c-3.59,1.52-6.63,1.52-12.44,1.44-3.05,0-5.11-.22-8.88-.57-10.75-1-11.51-1.9-11.77-2.52C353.88,316.17,356.48,313.2,358.87,310.48Z" transform="translate(43.91 18.77)"/><path class="cls-43" d="M243.26,306.39c0,1.57,1.88,2.77,5.68,5.16,4.14,2.61,8.82,5.56,15.12,5.73.07,0,2.93-.24,8.65-.73,2.11-.18,4.15-.35,6.81-.61,2.32-.22,3.91-.4,7.09-.78,5.26-.62,5.54-.72,5.68-1,1-2.14-7.49-8.25-14-11.77s-10.26-4-11.8-4.17a27.7,27.7,0,0,0-8.79.61C253.22,299.71,243.29,302.58,243.26,306.39Z" transform="translate(43.91 18.77)"/><path class="cls-44" d="M272.68,312.58a10.57,10.57,0,0,1-7.74,4.13A11.21,11.21,0,0,1,254.1,311c-1.53-2.95-1.81-7.2.51-10.32,2.09-2.8,5.3-3.36,6.71-3.61,1.18-.21,7.16-1.26,10.84,3.09A10.35,10.35,0,0,1,272.68,312.58Z" transform="translate(43.91 18.77)"/><path class="cls-45" d="M385.19,313.1a10.87,10.87,0,0,1-18.58,4.13c-2.09-2.29-4-6.37-2.58-9.81,1.73-4.12,7.25-4.84,11.87-5.44,3.39-.44,5.83-.76,7.75.79C386.6,305.17,386.12,310.23,385.19,313.1Z" transform="translate(43.91 18.77)"/><path class="cls-46" d="M368.58,298.82a31.1,31.1,0,0,1,7.36-.73,27.92,27.92,0,0,1,6.67,1.1,47.22,47.22,0,0,1,15.57,7.11,51,51,0,0,0-5.13-2.82c-.09.14,3.42,2.46,10.72,7.07a24.59,24.59,0,0,0-8.25-11.87c-6.27-4.87-13.37-5-16.46-5.08-.93,0-1.8,0-2.61,0a37.06,37.06,0,0,0-5.26.73c-4.12.95-8.9,6.44-11.88,9.77-3.66,4.09-10.64,11.63-10.76,11.53S359.11,301.07,368.58,298.82Z" transform="translate(43.91 18.77)"/><path class="cls-47" d="M296.94,318.23c.41-.25-.7-3-1.55-4.65a25.41,25.41,0,0,0-3.62-5.16A47,47,0,0,0,268.5,295c-4.71-.81-17.12-3-25.76,4.17-4,3.28-6.51,8-6.19,8.26s2.16-2,5.68-4.13a32.83,32.83,0,0,1,10.29-3.95,45.86,45.86,0,0,1,12.93-1.21h0a61.78,61.78,0,0,1,11.85,3.28,33.46,33.46,0,0,1,3.12,1.36,32.21,32.21,0,0,1,8.26,6.2C294.1,314.28,296.4,318.54,296.94,318.23Z" transform="translate(43.91 18.77)"/><path class="cls-48" d="M352.68,314.65c-.14-.15,2.53-3.35,6.19-6.2a32.94,32.94,0,0,1,6.71-4.13A26.41,26.41,0,0,1,375.9,302a28,28,0,0,1,13.42,3.37c3.28,1.8,3.23,2.68,8.26,5.68,2.54,1.51,7.37,4.16,7.74,3.62s-3.64-4.1-7.22-6.71c-4.75-3.46-8.44-6.16-13.42-7.23-8.54-1.83-15.86,2-19.1,3.61C357.39,308.54,352.87,314.84,352.68,314.65Z" transform="translate(43.91 18.77)"/><path class="cls-48" d="M288.13,308.49c-.13.18-6.51-5.57-16-8.3a31.82,31.82,0,0,0-13.45-1.39c-11,1.49-19.69,9.87-19.46,10.25a18.58,18.58,0,0,0,1.91-1.07s1.69-3,2.07-3.57c1.83-3,5.83-4.11,9.29-5.1a34,34,0,0,1,12.9-1.39c8.36.77,14.21,4.55,17.76,6.84A28.25,28.25,0,0,1,288.13,308.49Z" transform="translate(43.91 18.77)"/><path class="cls-49" d="M257.71,300.71a5.33,5.33,0,0,0,2.24,2c.68.28,1.79.51,2.15,0,.54-.69-1-2.55-.71-2.77s1.38,1.44,3.8,2.26a8,8,0,0,0,.83.23c2.43.45,4.3-1,4.46-.75s-3,2-2.71,3.32,4.45,1.69,4.39,2.1-1.82-.1-2.84,1a1.68,1.68,0,0,0-.51,1.61c.3.76,1.67.93,1.67.91s-2.75-1.55-4-.65c-1.06.77-.55,3-1,3s-1-3.63-2.38-3.81-3,3.22-3.1,3.16,2-2.5,1.29-4.2a3,3,0,0,0-2.43-1.54,3.93,3.93,0,0,0-2.21.51s2.82-.37,3.35-1.81C260.7,303.58,257.69,300.73,257.71,300.71Z" transform="translate(43.91 18.77)"/><path class="cls-50" d="M262.1,302.77c-1.57,1.19-3.56.77-3.62,1.29s2.15.87,2.33,2.07c0,.1,0,.34-.49,1.31-.91,1.7-1.6,2.14-1.45,2.43s5.15,0,4.26-.64h0s.31,3.52,1,3.61,1.08-2.66,2.58-2.84a1.89,1.89,0,0,1,.64.06c1.29.34,1.77,1.82,1.94,1.75s-1.45-2.89-.51-4.91c.69-1.48,2.46-1.8,2.32-2.32s-2.85.35-4.65-1-1.41-3.72-2.19-3.74S263.64,301.61,262.1,302.77Z" transform="translate(43.91 18.77)"/><path class="cls-51" d="M264.94,301.71a2.26,2.26,0,0,0-1.16,2.35,2.48,2.48,0,0,0,2.64,1.55,2.09,2.09,0,0,0,1.35-.55,2.21,2.21,0,0,0,.43-2.62A2.43,2.43,0,0,0,264.94,301.71Z" transform="translate(43.91 18.77)"/><path class="cls-52" d="M375,307.74c-1.86.86-5-2.23-5.22-1.93s2.63,2.13,2.32,3.87-4,2.63-3.87,2.9,3.61-1.23,4.45-.19-1.11,3.66-.77,3.87,1.53-2.25,2.9-2.13c1.62.14,2.51,3.8,2.9,3.68s-.88-3.45.2-4.26,4.14,1.35,4.25,1.16-2.46-1.23-2.51-2.71,2.91-2.88,2.71-3.29-3.68,1.55-5,.39c-1.18-1-.22-4-.58-4.07S376.3,307.16,375,307.74Z" transform="translate(43.91 18.77)"/><path class="cls-53" d="M372.39,305.49c.34-.2,1.58,2.09,2.5,1.86s.91-2.91,1.25-2.9.84,5,.84,5h0s5-3.53,5.22-3.31-3.77,2.48-3.34,4.34c.38,1.66,4,2.21,4,2.48s-4.12-1.24-5.43.21c-1.1,1.22.18,4-.21,4.14s-1.2-3-2.92-3.31-3.33,2.26-3.55,2.07,2.68-3.39,1.88-4.55c-.2-.29-.55-.36-1-.46a5.82,5.82,0,0,0-3.14.46c0-.08,3.81-1,4.38-3.11C373.16,307,372.11,305.64,372.39,305.49Z" transform="translate(43.91 18.77)"/><path class="cls-54" d="M376.4,305.82a2,2,0,0,0,0,4,2.55,2.55,0,0,0,2.64-.73,1.89,1.89,0,0,0,0-2.32A2.55,2.55,0,0,0,376.4,305.82Z" transform="translate(43.91 18.77)"/><path class="cls-55" d="M423.39,295.55c-.24.08-1.56-4.63-5.16-10.84-2.94-5-5.55-9.43-9.81-10.32-3.29-.7-6.19,1-7.23,1.55-6.41,3.51-22.25,8.93-53.07,17.33l-2.67-3.4c.82-1.87,1.63-3.74,2.45-5.62L369.71,278l40.77-15h3.59c.61,2,1.51,5.08,2.61,8.78C420.76,285.56,423.74,295.43,423.39,295.55Z" transform="translate(43.91 18.77)"/><path class="cls-56" d="M221.06,295.55a21.58,21.58,0,0,1,4.65-13.94c1.16-1.43,5.53-6.61,12.39-7.22a14.77,14.77,0,0,1,3.94.16L298,294.2a5,5,0,0,0,3.62-2.78,4.76,4.76,0,0,0-1-5.16l-11.61-3.21-51.48-22.6a31.31,31.31,0,0,0-4.52,3.1,32.6,32.6,0,0,0-8.26,10.32C219.91,283,220.67,292.28,221.06,295.55Z" transform="translate(43.91 18.77)"/><path class="cls-57" d="M351.65,319.42A16.36,16.36,0,0,0,355,320c1.61.14,2.23-.12,4.3,0,.9,0,1.55.1,2.33.19a58.91,58.91,0,0,1,6,1,58.46,58.46,0,0,0,17.16.67,24,24,0,0,0,7.22-2c1.69-.85,4.12-2.06,5.55-4.65,1-1.76,1-3.33,1.41-3.31s1.13,2.44.59,4.41c-1.14,4.19-7.56,5.77-10.84,6.58-6.75,1.66-12.66.68-17,0-3.58-.56-3.61-.89-9.68-1.94C357.09,320.05,351.66,319.33,351.65,319.42Z" transform="translate(43.91 18.77)"/><path class="cls-58" d="M243.52,307.29c.28.13-.9,2-.33,4.13a5.84,5.84,0,0,0,1.55,2.42c4.4,4.23,31.16,4,31.16,2.87h0s4.74-1.66,8.67-1a24.05,24.05,0,0,1,2.44.58,20.38,20.38,0,0,1,4,1.71c.83.47,2,1.13,1.94,1.29s-4.47-2.55-10.07-2.84c-3.68-.19-4.48.92-11,1.92-2.72.42-2.34.19-9.12.79-10.82.95-13.32,1.67-16.64-.1a8.48,8.48,0,0,1-3.87-3.77,7.86,7.86,0,0,1-.29-5.69C242.43,308.24,243.3,307.19,243.52,307.29Z" transform="translate(43.91 18.77)"/></g><g id="huulet"><path class="cls-59" d="M283.26,426.39a57.86,57.86,0,0,0,6.19,10.45,38,38,0,0,0,4.65,5.42c5.19,4.76,11.45,5.76,16.64,6.58,4.75.75,12.89,2,21.68-1.55a48.33,48.33,0,0,0,10.84-6.58c.65-.49,2.75-2.39,7-6.19,2.17-2,2.9-2.65,2.71-3.1-.4-.91-4.18.11-9.68,1.16-9.52,1.82-15.89,2.18-15.87,2.32s8.71-1,8.72-.89-13.7,1.08-17.63.51c-1.37-.21-2.48-.46-2.48-.46-1.1-.25-1.89-.51-3.23-.85,0,0-1-.27-2.8-.63-5.38-1.11-13.54-1.59-21.68-4.26C287.19,428,285.41,427.34,283.26,426.39Z" transform="translate(43.91 18.77)"/><path class="cls-60" d="M277.45,424.06c0,.19.8.56,6.58,2.71,5.09,1.9,7.64,2.84,8.52,3.1a68.73,68.73,0,0,0,12,2.32,38.38,38.38,0,0,1,6.19.78c3.19.73,3.35,1.32,5.81,1.93,2.11.53,3.34.43,10.84,0,7.07-.4,6.6-.35,7-.38,6.73-.69,8.11-1.89,15.88-3.1,4.71-.74,7.75-.85,7.74-1.16,0-.54-9,1.23-18.58-2.71-3.55-1.45-4.2-2.46-7-2.71-5.42-.5-6.9,3-12.39,3.1-5,.11-5.42-2.7-11.61-3.49-4.84-.61-5.87.94-12,1.55C285.79,427.06,277.59,423.5,277.45,424.06Z" transform="translate(43.91 18.77)"/><path class="cls-61" d="M274.94,423.1c-.07.14,5.91,3,10.57,5.09,4.48,2,2.75,1.08,6.06,2.58a31.6,31.6,0,0,0,4.85,1.81,12.77,12.77,0,0,0,2.57.51,16,16,0,0,0,3.82-.32c.6-.06,1.7-.1,5.22,1,6.13,1.87,6.91,3.27,10.36,3.58a31.48,31.48,0,0,0,5.13-.48c5.06-.65,6.54-1.09,12.38-2,5-.81,5.61-.76,9.2-1.46,1.81-.35,4.75-1,5.71-1.16,2.33-.48,3.5-.72,4.06-.87a32.3,32.3,0,0,0,7.1-2.55,57.13,57.13,0,0,1-5.55,1.68c-1.74.41-2.2.32-6.19,1l-3.39.58c-5.61,1-6.32,1.25-8.23,1.35a18.22,18.22,0,0,0-2,.19c-1,.17-1.76.42-3,.69a30.64,30.64,0,0,1-3.27.51c-6.07.75-9.11,1.12-11.58.94a38.7,38.7,0,0,1-8.52-1.74,46.49,46.49,0,0,0-5.61-1.75,31.56,31.56,0,0,0-6.58-.38c-2.94-.11-4-.84-13.94-5C280.06,425.1,275,423,274.94,423.1Z" transform="translate(43.91 18.77)"/></g></svg>